<?xml version="1.0" encoding="UTF-8" standalone="no"?>
<svg
   xmlns:dc="http://purl.org/dc/elements/1.1/"
   xmlns:cc="http://creativecommons.org/ns#"
   xmlns:rdf="http://www.w3.org/1999/02/22-rdf-syntax-ns#"
   xmlns:svg="http://www.w3.org/2000/svg"
   xmlns="http://www.w3.org/2000/svg"
   xmlns:sodipodi="http://sodipodi.sourceforge.net/DTD/sodipodi-0.dtd"
   xmlns:inkscape="http://www.inkscape.org/namespaces/inkscape"
   inkscape:version="1.0 (4035a4fb49, 2020-05-01)"
   sodipodi:docname="bin-closed.svg"
   version="1.1"
   overflow="hidden"
   id="Icons_Garbage"
   viewBox="0 0 96 96">
  <metadata
     id="metadata11">
    <rdf:RDF>
      <cc:Work
         rdf:about="">
        <dc:format>image/svg+xml</dc:format>
        <dc:type
           rdf:resource="http://purl.org/dc/dcmitype/StillImage" />
        <dc:title></dc:title>
      </cc:Work>
    </rdf:RDF>
  </metadata>
  <defs
     id="defs9" />
  <sodipodi:namedview
     inkscape:current-layer="Icons_Garbage"
     inkscape:window-maximized="1"
     inkscape:window-y="-8"
     inkscape:window-x="1912"
     inkscape:cy="54.643011"
     inkscape:cx="49.684144"
     inkscape:zoom="6.2608413"
     showgrid="false"
     id="namedview7"
     inkscape:window-height="1017"
     inkscape:window-width="1920"
     inkscape:pageshadow="2"
     inkscape:pageopacity="0"
     guidetolerance="10"
     gridtolerance="10"
     objecttolerance="10"
     borderopacity="1"
     bordercolor="#666666"
     pagecolor="#ffffff" />
  <path
     id="path2"
     d="M78 20 61 20 61 15C61 11.1 57.9 8 54 8L42 8C38.1 8 35 11.1 35 15L35 20 18 20C15.8 20 14 21.8 14 24L14 28 82 28 82 24C82 21.8 80.2 20 78 20ZM41 15C41 14.4 41.4 14 42 14L54 14C54.6 14 55 14.4 55 15L55 20 41 20 41 15Z" />
  <path
     id="path4"
     d="M20 84C20 86.2 21.8 88 24 88L72 88C74.2 88 76 86.2 76 84L76 32 20 32 20 84ZM61 38 67 38 67 82 61 82 61 38ZM45 38 51 38 51 82 45 82 45 38ZM29 38 35 38 35 82 29 82 29 38Z" />
</svg>
