<?xml version="1.0" encoding="UTF-8" standalone="no"?>
<svg
   xmlns:dc="http://purl.org/dc/elements/1.1/"
   xmlns:cc="http://creativecommons.org/ns#"
   xmlns:rdf="http://www.w3.org/1999/02/22-rdf-syntax-ns#"
   xmlns:svg="http://www.w3.org/2000/svg"
   xmlns="http://www.w3.org/2000/svg"
   xmlns:sodipodi="http://sodipodi.sourceforge.net/DTD/sodipodi-0.dtd"
   xmlns:inkscape="http://www.inkscape.org/namespaces/inkscape"
   viewBox="0 0 96 96"
   id="Icons_Garbage"
   overflow="hidden"
   version="1.1"
   sodipodi:docname="bin-open-empty.svg"
   inkscape:version="1.0 (4035a4fb49, 2020-05-01)">
  <metadata
     id="metadata11">
    <rdf:RDF>
      <cc:Work
         rdf:about="">
        <dc:format>image/svg+xml</dc:format>
        <dc:type
           rdf:resource="http://purl.org/dc/dcmitype/StillImage" />
        <dc:title></dc:title>
      </cc:Work>
    </rdf:RDF>
  </metadata>
  <defs
     id="defs9" />
  <sodipodi:namedview
     inkscape:document-rotation="0"
     pagecolor="#ffffff"
     bordercolor="#666666"
     borderopacity="1"
     objecttolerance="10"
     gridtolerance="10"
     guidetolerance="10"
     inkscape:pageopacity="0"
     inkscape:pageshadow="2"
     inkscape:window-width="1920"
     inkscape:window-height="1017"
     id="namedview7"
     showgrid="false"
     inkscape:zoom="8.6145833"
     inkscape:cx="48"
     inkscape:cy="48"
     inkscape:window-x="1912"
     inkscape:window-y="-8"
     inkscape:window-maximized="1"
     inkscape:current-layer="Icons_Garbage" />
  <path
     d="M 94.613984,44.225966 82.593169,32.205151 86.128702,28.669617 c 2.757717,-2.757717 2.757717,-7.141779 0,-9.899495 L 77.643421,10.28484 c -2.757716,-2.7577159 -7.141778,-2.7577159 -9.899495,0 L 64.208392,13.820374 52.187577,1.7995591 c -1.555635,-1.55563493 -4.101219,-1.55563493 -5.656854,0 L 43.702296,4.6279863 91.785557,52.711247 94.613984,49.88282 c 1.555635,-1.555635 1.555635,-4.101219 0,-5.656854 z M 71.986567,14.527481 c 0.424264,-0.424264 0.989949,-0.424264 1.414213,0 l 8.485282,8.485282 c 0.424264,0.424264 0.424264,0.989949 0,1.414213 l -3.535534,3.535534 -9.899495,-9.899495 z"
     id="path2" />
  <path
     d="M20 84C20 86.2 21.8 88 24 88L72 88C74.2 88 76 86.2 76 84L76 32 20 32 20 84ZM61 38 67 38 67 82 61 82 61 38ZM45 38 51 38 51 82 45 82 45 38ZM29 38 35 38 35 82 29 82 29 38Z"
     id="path4" />
</svg>
