<?xml version="1.0" encoding="UTF-8" standalone="no"?>
<svg
   xmlns:dc="http://purl.org/dc/elements/1.1/"
   xmlns:cc="http://creativecommons.org/ns#"
   xmlns:rdf="http://www.w3.org/1999/02/22-rdf-syntax-ns#"
   xmlns:svg="http://www.w3.org/2000/svg"
   xmlns="http://www.w3.org/2000/svg"
   xmlns:sodipodi="http://sodipodi.sourceforge.net/DTD/sodipodi-0.dtd"
   xmlns:inkscape="http://www.inkscape.org/namespaces/inkscape"
   inkscape:version="1.0 (4035a4fb49, 2020-05-01)"
   sodipodi:docname="ethernet.svg"
   version="1.1"
   overflow="hidden"
   id="Icons_Wireless"
   viewBox="0 0 96 96">
  <metadata
     id="metadata77">
    <rdf:RDF>
      <cc:Work
         rdf:about="">
        <dc:format>image/svg+xml</dc:format>
        <dc:type
           rdf:resource="http://purl.org/dc/dcmitype/StillImage" />
        <dc:title></dc:title>
      </cc:Work>
    </rdf:RDF>
  </metadata>
  <defs
     id="defs75" />
  <sodipodi:namedview
     inkscape:current-layer="Icons_Wireless"
     inkscape:window-maximized="1"
     inkscape:window-y="-8"
     inkscape:window-x="1912"
     inkscape:cy="53.266155"
     inkscape:cx="20.126566"
     inkscape:zoom="6.2608413"
     showgrid="false"
     id="namedview73"
     inkscape:window-height="1017"
     inkscape:window-width="1920"
     inkscape:pageshadow="2"
     inkscape:pageopacity="0"
     guidetolerance="10"
     gridtolerance="10"
     objecttolerance="10"
     borderopacity="1"
     bordercolor="#666666"
     pagecolor="#ffffff" />
  <path
     style="stroke-width:0.836617"
     id="path4"
     d="m 14.535309,17.045164 c -2.509852,0 -5.019702,2.509852 -5.019702,5.019703 v 24.261897 27.608369 c 0,2.509852 2.50985,5.019703 5.019702,5.019703 h 19.660504 27.60837 19.6605 c 2.50985,0 5.01971,-2.509851 5.01971,-5.019703 V 46.326764 22.064867 c 0,-2.509851 -2.50986,-5.019703 -5.01971,-5.019703 z m 23.425284,6.692937 h 20.07881 l 0.83662,6.692937 h 6.27463 l 0.4183,6.692938 h 12.54926 l 1.67324,1.673234 v 9.202789 l -1.67324,0.836617 v 5.85632 3.346469 l 1.67324,0.836617 v 11.712642 l -1.67324,1.673235 H 66.405573 V 55.529553 h -3.34647 v 16.732346 h -3.34646 V 55.529553 h -3.34647 v 16.732346 h -3.34647 V 55.529553 h -3.34647 v 16.732346 h -3.34647 V 55.529553 h -3.34647 v 16.732346 h -3.34647 V 55.529553 h -3.34647 v 16.732346 h -3.34647 V 55.529553 h -3.34647 V 72.261899 H 17.88178 L 16.208544,70.588664 V 58.876022 l 1.673236,-0.836617 v -3.346469 -5.85632 L 16.208544,47.999999 V 38.79721 l 1.673236,-1.673234 h 12.549253 l 0.41831,-6.692938 h 6.27463 z" />
</svg>
