<?xml version="1.0" encoding="UTF-8" standalone="no"?>
<svg
   xmlns:dc="http://purl.org/dc/elements/1.1/"
   xmlns:cc="http://creativecommons.org/ns#"
   xmlns:rdf="http://www.w3.org/1999/02/22-rdf-syntax-ns#"
   xmlns:svg="http://www.w3.org/2000/svg"
   xmlns="http://www.w3.org/2000/svg"
   xmlns:xlink="http://www.w3.org/1999/xlink"
   xmlns:sodipodi="http://sodipodi.sourceforge.net/DTD/sodipodi-0.dtd"
   xmlns:inkscape="http://www.inkscape.org/namespaces/inkscape"
   version="1.0"
   width="128"
   height="128"
   id="svg2108"
   sodipodi:docname="laptop.svg"
   inkscape:version="1.0.2-2 (e86c870879, 2021-01-15)">
  <metadata
     id="metadata70">
    <rdf:RDF>
      <cc:Work
         rdf:about="">
        <dc:format>image/svg+xml</dc:format>
        <dc:type
           rdf:resource="http://purl.org/dc/dcmitype/StillImage" />
      </cc:Work>
    </rdf:RDF>
  </metadata>
  <sodipodi:namedview
     pagecolor="#ffffff"
     bordercolor="#666666"
     borderopacity="1"
     objecttolerance="10"
     gridtolerance="10"
     guidetolerance="10"
     inkscape:pageopacity="0"
     inkscape:pageshadow="2"
     inkscape:window-width="1920"
     inkscape:window-height="1027"
     id="namedview68"
     showgrid="false"
     inkscape:zoom="1.6796875"
     inkscape:cx="-170.74156"
     inkscape:cy="101.03147"
     inkscape:window-x="-8"
     inkscape:window-y="-8"
     inkscape:window-maximized="1"
     inkscape:current-layer="g3655"
     inkscape:document-rotation="0" />
  <defs
     id="defs3">
    <linearGradient
       id="linearGradient903">
      <stop
         id="stop899"
         style="stop-color:#8f8f8f;stop-opacity:1"
         offset="0" />
      <stop
         id="stop901"
         style="stop-color:#545454;stop-opacity:1"
         offset="1" />
    </linearGradient>
    <linearGradient
       id="linearGradient2245">
      <stop
         id="stop2247"
         style="stop-color:#dde1d9;stop-opacity:1"
         offset="0" />
      <stop
         id="stop2249"
         style="stop-color:#cacdc6;stop-opacity:1"
         offset="1" />
    </linearGradient>
    <linearGradient
       id="linearGradient2253">
      <stop
         id="stop2255"
         style="stop-color:#8f8f8f;stop-opacity:1"
         offset="0" />
      <stop
         id="stop2257"
         style="stop-color:#494949;stop-opacity:1"
         offset="1" />
    </linearGradient>
    <linearGradient
       id="linearGradient2667">
      <stop
         id="stop2669"
         style="stop-color:#ffffff;stop-opacity:1"
         offset="0" />
      <stop
         id="stop2671"
         style="stop-color:#fcfcff;stop-opacity:0"
         offset="1" />
    </linearGradient>
    <linearGradient
       id="linearGradient2711">
      <stop
         id="stop2713"
         style="stop-color:#909090;stop-opacity:1"
         offset="0" />
      <stop
         id="stop2715"
         style="stop-color:#bebebe;stop-opacity:0"
         offset="1" />
    </linearGradient>
    <linearGradient
       id="linearGradient2415">
      <stop
         id="stop2417"
         style="stop-color:#ffffff;stop-opacity:1"
         offset="0" />
      <stop
         id="stop2419"
         style="stop-color:#ffffff;stop-opacity:0"
         offset="1" />
    </linearGradient>
    <linearGradient
       id="linearGradient2454">
      <stop
         id="stop2456"
         style="stop-color:#000000;stop-opacity:1"
         offset="0" />
      <stop
         id="stop2458"
         style="stop-color:#000000;stop-opacity:0"
         offset="1" />
    </linearGradient>
    <linearGradient
       id="linearGradient2635">
      <stop
         id="stop2637"
         style="stop-color:#f9fff5;stop-opacity:1"
         offset="0" />
      <stop
         id="stop2639"
         style="stop-color:#f9fff5;stop-opacity:0"
         offset="1" />
    </linearGradient>
    <linearGradient
       id="linearGradient2683">
      <stop
         id="stop2685"
         style="stop-color:#000000;stop-opacity:1"
         offset="0" />
      <stop
         id="stop2687"
         style="stop-color:#000000;stop-opacity:0"
         offset="1" />
    </linearGradient>
    <linearGradient
       id="linearGradient2752">
      <stop
         id="stop2754"
         style="stop-color:#9d9d9d;stop-opacity:1"
         offset="0" />
      <stop
         id="stop2756"
         style="stop-color:#b9b9b9;stop-opacity:1"
         offset="1" />
    </linearGradient>
    <linearGradient
       id="linearGradient3400">
      <stop
         id="stop3402"
         style="stop-color:#416db4;stop-opacity:1"
         offset="0" />
      <stop
         id="stop3404"
         style="stop-color:#385e9b;stop-opacity:1"
         offset="1" />
    </linearGradient>
    <radialGradient
       cx="12.57571"
       cy="67.501709"
       r="8.7662792"
       fx="12.57571"
       fy="67.501709"
       id="radialGradient3466"
       xlink:href="#linearGradient2454"
       gradientUnits="userSpaceOnUse"
       gradientTransform="scale(1.925808,0.519262)" />
    <linearGradient
       x1="8.1134243"
       y1="88.509071"
       x2="8.1134233"
       y2="100.20015"
       id="linearGradient3543"
       xlink:href="#linearGradient2752"
       gradientUnits="userSpaceOnUse"
       gradientTransform="matrix(5.8294934,0,0,1.0521772,3.7197511,-32.148875)" />
    <linearGradient
       x1="8.1134243"
       y1="88.509071"
       x2="8.1134233"
       y2="100.20015"
       id="linearGradient3545"
       xlink:href="#linearGradient2752"
       gradientUnits="userSpaceOnUse"
       gradientTransform="matrix(5.8294934,0,0,1.0521772,3.7197511,-32.148875)" />
    <linearGradient
       x1="13.62871"
       y1="101.2846"
       x2="8.6485014"
       y2="74.098007"
       id="linearGradient3584"
       xlink:href="#linearGradient2635"
       gradientUnits="userSpaceOnUse"
       gradientTransform="matrix(5.2394555,0,0,1.53325,9.8410157,-52.73869)" />
    <linearGradient
       x1="18.316999"
       y1="48.643234"
       x2="18.176752"
       y2="52.536461"
       id="linearGradient3592"
       xlink:href="#linearGradient2245"
       gradientUnits="userSpaceOnUse"
       gradientTransform="matrix(2.7616034,0,0,2.9089576,7.3968226,-51.066318)" />
    <linearGradient
       x1="10.815624"
       y1="110.92633"
       x2="32.536823"
       y2="31.246054"
       id="linearGradient3594"
       xlink:href="#linearGradient903"
       gradientUnits="userSpaceOnUse"
       gradientTransform="matrix(2.6993595,0,0,2.9760331,7.3968226,-51.066318)" />
    <linearGradient
       x1="11.492236"
       y1="1.6537577"
       x2="17.199417"
       y2="26.729263"
       id="linearGradient3625"
       xlink:href="#linearGradient2667"
       gradientUnits="userSpaceOnUse"
       gradientTransform="matrix(3.1509649,0,0,1.6824458,10.044006,6.9463184)" />
    <linearGradient
       x1="17.698339"
       y1="13.004725"
       x2="34.974548"
       y2="55.200756"
       id="linearGradient3628"
       xlink:href="#linearGradient2415"
       gradientUnits="userSpaceOnUse"
       gradientTransform="matrix(2.5706172,0,0,1.6946817,12.628035,11.324512)" />
    <linearGradient
       x1="3.7069976"
       y1="171.29134"
       x2="3.7069974"
       y2="162.45061"
       id="linearGradient3631"
       xlink:href="#linearGradient2683"
       gradientUnits="userSpaceOnUse"
       gradientTransform="matrix(13.235438,0,0,0.329145,12.628035,8.170942)" />
    <linearGradient
       x1="-57.547276"
       y1="38.652531"
       x2="-57.495499"
       y2="15.323487"
       id="linearGradient3634"
       xlink:href="#linearGradient3400"
       gradientUnits="userSpaceOnUse"
       gradientTransform="matrix(1.9447193,0,0,1.5043664,192.83662,-2.2198039)" />
    <linearGradient
       x1="8.6116238"
       y1="7.2293582"
       x2="34.784473"
       y2="33.339787"
       id="linearGradient3637"
       xlink:href="#linearGradient2245"
       gradientUnits="userSpaceOnUse"
       gradientTransform="matrix(2.621177,0,0,1.6619927,6.5382785,6.997306)" />
    <linearGradient
       x1="10.390738"
       y1="5.3817744"
       x2="32.536823"
       y2="31.246054"
       id="linearGradient3639"
       xlink:href="#linearGradient2253"
       gradientUnits="userSpaceOnUse"
       gradientTransform="matrix(2.5620984,0,0,1.7003151,10.308131,9.4466855)" />
    <linearGradient
       x1="34.300991"
       y1="3.9384086"
       x2="35.520542"
       y2="3.8451097"
       id="linearGradient3647"
       xlink:href="#linearGradient2711"
       gradientUnits="userSpaceOnUse"
       gradientTransform="matrix(-3.3242924,0,0,-1.1380253,196.20743,77.206904)" />
    <linearGradient
       x1="34.300991"
       y1="3.9384086"
       x2="35.520542"
       y2="3.8451097"
       id="linearGradient3649"
       xlink:href="#linearGradient2711"
       gradientUnits="userSpaceOnUse"
       gradientTransform="matrix(-3.3242924,0,0,-1.1380253,189.31171,77.206904)" />
  </defs>
  <g
     id="layer1"
     style="display:inline" />
  <g
     id="layer2"
     style="display:inline">
    <g
       id="g3655">
      <path
         d="m 41.10058,35.051105 a 16.882174,4.552 0 1 1 -33.7643469,0 16.882174,4.552 0 1 1 33.7643469,0 z"
         transform="matrix(3.7246128,0,0,6.2117749,-26.292557,-124.75774)"
         id="path2886"
         style="fill:url(#radialGradient3466);fill-opacity:1;fill-rule:evenodd;stroke:none;stroke-width:1;marker:none;visibility:visible;display:inline;overflow:visible" />
      <path
         d="m 23.191649,69.942473 h 75.775868 c 2.735663,0 2.388853,0.892142 2.669613,2.014255 l 6.92843,27.690027 c 0.28076,1.122115 0.066,2.014245 -2.66962,2.014245 H 16.263227 c -2.735662,0 -2.950385,-0.89213 -2.669615,-2.014245 l 6.928422,-27.690027 c 0.280768,-1.122117 -0.06605,-2.014255 2.669615,-2.014255 z"
         id="path2888"
         style="display:inline;overflow:visible;visibility:visible;fill:url(#linearGradient3592);fill-opacity:1;fill-rule:evenodd;stroke:url(#linearGradient3594);stroke-width:3.6364;stroke-linecap:butt;stroke-linejoin:miter;stroke-miterlimit:4;stroke-dasharray:none;stroke-dashoffset:0;stroke-opacity:1;marker:none" />
      <g
         transform="matrix(1.1801776,0,0,1.3523527,1.6995832,-7.5897008)"
         id="g3380">
        <path
           d="m 19.850796,62.220415 -4.461407,12.459374 h 13.830362 l 1.338422,-4.940779 h 37.475819 l 1.387254,5.0433 H 84.987338 L 80.749003,62.220415 Z"
           id="path2890"
           style="fill:#7a7d77;fill-opacity:1;fill-rule:evenodd;stroke:none" />
        <path
           d="m 31.673526,70.598276 -1.115353,4.081522 h 37.25275 L 66.69557,70.38346 Z"
           id="path2892"
           style="fill:#777874;fill-opacity:1;fill-rule:evenodd;stroke:none" />
        <path
           d="m 19.850796,60.71671 -4.461407,12.459373 h 13.830362 l 1.338422,-4.940788 h 37.475819 l 1.387254,5.043309 H 84.987338 L 80.749003,60.71671 Z"
           id="path2898"
           style="fill:url(#linearGradient3543);fill-opacity:1;fill-rule:evenodd;stroke:none" />
        <path
           d="M 31.673526,69.309377 30.558173,73.3909 h 37.25275 L 66.69557,69.094561 Z"
           id="path2900"
           style="display:inline;overflow:visible;visibility:visible;fill:url(#linearGradient3545);fill-opacity:1;fill-rule:evenodd;stroke:none;stroke-width:0.25pt;marker:none" />
      </g>
      <path
         d="m 22.374395,72.442565 h 77.788435 l 6.44578,26.598014 H 15.535358 Z"
         id="path2902"
         style="display:inline;overflow:visible;visibility:visible;fill:none;stroke:url(#linearGradient3584);stroke-width:1.81842;stroke-linecap:butt;stroke-linejoin:round;stroke-miterlimit:4;stroke-dashoffset:0;stroke-opacity:1;marker:none" />
      <path
         d="m 70.898745,72.724896 a 2.7913727,0.95558769 0 1 1 5.582744,0 2.7913727,0.95558769 0 1 1 -5.582744,0 z"
         id="path2904"
         style="display:inline;overflow:visible;visibility:visible;fill:url(#linearGradient3649);fill-opacity:1;fill-rule:evenodd;stroke:none;stroke-width:0.972513;marker:none" />
      <path
         d="m 77.794458,72.724896 a 2.7913727,0.95558769 0 1 1 5.582743,0 2.7913727,0.95558769 0 1 1 -5.582743,0 z"
         id="path2906"
         style="display:inline;overflow:visible;visibility:visible;fill:url(#linearGradient3647);fill-opacity:1;fill-rule:evenodd;stroke:none;stroke-width:0.972513;marker:none" />
      <path
         d="m 86.201617,72.724896 a 2.7913727,0.95558769 0 1 1 5.582743,0 2.7913727,0.95558769 0 1 1 -5.582743,0 z"
         id="path2908"
         style="display:inline;overflow:visible;visibility:visible;fill:#339900;fill-opacity:1;fill-rule:evenodd;stroke:none;stroke-width:0.972513;marker:none" />
      <path
         d="m 25.437688,12.630766 h 71.23681 c 2.114228,0 3.809302,1.093571 3.866712,2.631935 l 1.79274,48.031192 c 0.13505,2.098909 -2.09036,3.793778 -4.686916,3.793778 H 24.465157 c -2.596559,0 -4.821968,-1.694869 -4.686919,-3.793778 l 1.792744,-48.031192 c 0.09345,-1.452563 1.270155,-2.631935 3.866706,-2.631935 z"
         id="path2876"
         style="display:inline;overflow:visible;visibility:visible;fill:url(#linearGradient3637);fill-opacity:1;fill-rule:evenodd;stroke:url(#linearGradient3639);stroke-width:3.38718;stroke-linecap:butt;stroke-linejoin:miter;stroke-miterlimit:4;stroke-dasharray:none;stroke-dashoffset:0;stroke-opacity:1;marker:none"
         sodipodi:nodetypes="ssscssccs" />
      <path
         d="M 28.77213,17.569571 26.969903,60.123823 H 95.967056 L 93.933205,17.749917 Z"
         id="path2878"
         style="display:inline;overflow:visible;visibility:visible;fill:url(#linearGradient3634);fill-opacity:1;fill-rule:evenodd;stroke:#4263a8;stroke-width:1.40806;stroke-linecap:butt;stroke-linejoin:round;stroke-miterlimit:4;stroke-dasharray:none;stroke-dashoffset:0;stroke-opacity:1;marker:none"
         sodipodi:nodetypes="ccccc" />
      <path
         d="M 24.639198,63.407438 H 97.550353"
         id="path2880"
         style="fill:none;stroke:url(#linearGradient3631);stroke-width:2.66792;stroke-linecap:round;stroke-linejoin:miter;stroke-miterlimit:4;stroke-opacity:0.248408"
         sodipodi:nodetypes="cc" />
      <path
         d="m 25.051878,14.528715 71.83374,-0.07098 c 0.658153,-6.75e-4 1.297531,0.445514 1.35043,1.225365 l 1.862002,46.576127 c 0.13464,1.984916 -1.252181,3.353551 -3.708087,3.353551 H 25.577196 c -2.455907,0 -3.695647,-1.368542 -3.56308,-3.353551 l 1.774287,-45.995733 c 0.08978,-1.344205 0.386004,-1.733879 1.263475,-1.734779 z"
         id="path2882"
         style="display:inline;overflow:visible;visibility:visible;fill:none;stroke:url(#linearGradient3628);stroke-width:2.67815;stroke-linecap:butt;stroke-linejoin:miter;stroke-miterlimit:4;stroke-dashoffset:0;stroke-opacity:0.700637;marker:none"
         sodipodi:nodetypes="ccccssccc" />
      <path
         d="M 29.399805,18.359518 28.069559,51.916853 C 56.158272,47.408894 59.17016,32.214351 94.094816,27.229571 l -0.580027,-8.745996 z"
         id="path2884"
         style="opacity:0.531429;fill:url(#linearGradient3625);fill-opacity:1;fill-rule:evenodd;stroke:none;stroke-width:0.94822"
         sodipodi:nodetypes="ccccc" />
      <path
         d="m 56.706269,61.798792 h 0.653557 c 0.194325,2e-6 0.343309,0.03505 0.446952,0.105137 0.104325,0.06955 0.156485,0.168887 0.156487,0.298036 -2e-6,0.1297 -0.05216,0.229598 -0.156487,0.299691 -0.103643,0.06955 -0.252627,0.104315 -0.446952,0.104315 h -0.259787 v 0.428839 h -0.39377 v -1.236019 m 0.39377,0.230976 v 0.345228 h 0.217851 c 0.07637,0 0.135349,-0.01491 0.176942,-0.04471 0.04159,-0.03035 0.06239,-0.07313 0.06239,-0.12832 0,-0.05519 -0.02079,-0.09769 -0.06239,-0.127494 -0.0416,-0.0298 -0.100574,-0.0447 -0.176942,-0.0447 h -0.217851 m 1.837933,-0.02235 c -0.120007,10e-7 -0.213078,0.03589 -0.27922,0.107622 -0.06614,0.07175 -0.09921,0.172753 -0.09921,0.303003 0,0.129703 0.03306,0.230428 0.09921,0.302177 0.06614,0.07175 0.159213,0.107623 0.27922,0.107623 0.120686,0 0.214101,-0.03588 0.280243,-0.107623 0.06614,-0.07174 0.0992,-0.172474 0.09921,-0.302177 -2e-6,-0.13025 -0.03306,-0.231248 -0.09921,-0.303003 -0.06614,-0.07174 -0.159557,-0.107622 -0.280243,-0.107622 m 0,-0.230977 c 0.245466,0 0.437747,0.05685 0.576847,0.170542 0.139096,0.113696 0.208646,0.270714 0.208648,0.47106 -2e-6,0.199796 -0.06955,0.356541 -0.208648,0.470235 -0.1391,0.113697 -0.331381,0.170543 -0.576847,0.170543 -0.244785,0 -0.437067,-0.05685 -0.576846,-0.170543 -0.139098,-0.113694 -0.208647,-0.270439 -0.208647,-0.470235 0,-0.200346 0.06955,-0.357364 0.208647,-0.47106 0.139779,-0.113696 0.332061,-0.170542 0.576846,-0.170542 m 1.0821,0.02235 h 0.439794 l 0.555368,0.847745 v -0.847745 h 0.373315 v 1.236017 h -0.439794 l -0.555367,-0.847747 v 0.847744 h -0.373316 v -1.236026 m 1.538259,0 h 0.430587 l 0.347746,0.440429 0.347745,-0.440429 h 0.431613 L 62.53406,62.514068 V 63.0348 h -0.39377 v -0.520732 l -0.581959,-0.715286"
         id="path2914"
         style="font-style:normal;font-variant:normal;font-weight:bold;font-stretch:normal;font-size:0.902903px;font-family:'Bitstream Vera Sans';writing-mode:lr-tb;text-anchor:start;fill:#4a4a4a;fill-opacity:1;stroke:none;stroke-width:0.94822"
         sodipodi:nodetypes="cscscsccccccscsssccsssssssccsssscsccccccccccccccccccccccc" />
    </g>
  </g>
</svg>
