<svg viewBox="0 0 96 96" xmlns="http://www.w3.org/2000/svg" xmlns:xlink="http://www.w3.org/1999/xlink" id="Icons_Router" overflow="hidden"><g><path d="M74 73.9C72.9 73.9 72 73 72 71.9 72 70.8 72.9 69.9 74 69.9 75.1 69.9 76 70.8 76 71.9 76 73 75.1 73.9 74 73.9ZM64 73.9C62.9 73.9 62 73 62 71.9 62 70.8 62.9 69.9 64 69.9 65.1 69.9 66 70.8 66 71.9 66 73 65.1 73.9 64 73.9ZM54 73.9C52.9 73.9 52 73 52 71.9 52 70.8 52.9 69.9 54 69.9 55.1 69.9 56 70.8 56 71.9 56 73 55.1 73.9 54 73.9ZM44 73.9C42.9 73.9 42 73 42 71.9 42 70.8 42.9 69.9 44 69.9 45.1 69.9 46 70.8 46 71.9 46 73 45.1 73.9 44 73.9ZM24 75.9C21.8 75.9 20 74.1 20 71.9 20 69.7 21.8 67.9 24 67.9 26.2 67.9 28 69.7 28 71.9 28 74.1 26.2 75.9 24 75.9ZM78 61.9 L46 61.9 18 61.9C15.8 61.9 14 63.7 14 65.9L14 77.9C14 80.1 15.8 81.9 18 81.9L78 81.9C80.2 81.9 82 80.1 82 77.9L82 65.9C82 63.7 80.2 61.9 78 61.9Z"/></g></svg>