<svg viewBox="0 0 96 96" xmlns="http://www.w3.org/2000/svg" xmlns:xlink="http://www.w3.org/1999/xlink" id="Icons_Router" overflow="hidden"><g><path d="M76.5,74.5L71.5,74.5L71.5,69.5L76.5,69.5L76.5,74.5zM66.5,74.5L61.5,74.5L61.5,69.5L66.5,69.5L66.5,74.5zM56.5,74.5L51.5,74.5L51.5,69.5L56.5,69.5L56.5,74.5zM46.5,74.5L41.5,74.5L41.5,69.5L46.5,69.5L46.5,74.5zM78,61.9L46,61.9L18,61.9C15.8,61.9 14,63.7 14,65.9L14,77.9C14,80.1 15.8,81.9 18,81.9L78,81.9C80.2,81.9 82,80.1 82,77.9L82,65.9C82,63.7 80.2,61.9 78,61.9z"/></g></svg>