<?xml version="1.0" standalone="no"?>
<!DOCTYPE svg PUBLIC "-//W3C//DTD SVG 20010904//EN"
 "http://www.w3.org/TR/2001/REC-SVG-20010904/DTD/svg10.dtd">
<svg version="1.0" xmlns="http://www.w3.org/2000/svg"
 width="700.000000pt" height="700.000000pt" viewBox="0 0 700.000000 700.000000"
 preserveAspectRatio="xMidYMid meet">
<metadata>
Created by potrace 1.11, written by Peter Selinger 2001-2013
</metadata>
<g transform="translate(0.000000,700.000000) scale(0.100000,-0.100000)"
fill="#000000" stroke="none">
<path d="M3050 5678 c-52 -15 -86 -43 -109 -91 -21 -43 -21 -51 -21 -996 0
-914 1 -953 19 -989 23 -46 46 -67 94 -87 30 -12 95 -15 397 -15 l360 0 0 -75
0 -75 70 0 70 0 0 -295 0 -295 -499 0 -500 0 -7 56 c-6 51 -4 58 19 82 20 21
34 61 63 175 l36 147 78 0 78 0 7 40 c4 22 16 51 27 65 l19 25 -155 0 -155 0
-10 -37 c-48 -181 -151 -607 -151 -622 0 -11 10 -29 22 -41 21 -20 32 -20 575
-20 l553 0 0 -290 c0 -305 4 -334 48 -383 46 -51 52 -52 452 -57 l375 -5 3
-72 3 -73 489 0 490 0 0 70 c0 63 2 70 20 70 18 0 20 -7 20 -70 l0 -70 75 0
75 0 0 75 0 75 364 0 c233 0 375 4 393 11 38 14 83 57 99 96 21 48 21 1918 0
1966 -16 39 -61 82 -99 96 -18 7 -181 11 -467 11 l-440 0 -2 743 -3 743 -27
41 c-14 22 -43 48 -65 59 -37 18 -81 19 -1343 21 -846 1 -1317 -2 -1340 -9z
m2628 -150 c9 -9 12 -185 12 -730 l0 -718 -75 0 -75 0 0 639 0 640 -26 20
c-27 21 -29 21 -1135 21 -802 0 -1115 -3 -1133 -11 -13 -7 -30 -23 -36 -38 -7
-18 -10 -230 -8 -698 3 -644 4 -672 22 -692 19 -21 26 -21 363 -21 l343 0 0
-150 0 -151 -418 3 c-337 2 -422 6 -435 17 -16 12 -17 90 -17 935 0 704 3 925
12 934 17 17 2589 17 2606 0z m1016 -1604 c14 -14 16 -112 16 -930 0 -612 -3
-922 -10 -935 -11 -19 -36 -19 -1304 -19 -1191 0 -1295 1 -1307 17 -12 13 -14
171 -14 933 0 762 2 920 14 933 12 16 116 17 1302 17 1157 0 1289 -2 1303 -16z"/>
<path d="M4240 3770 c-20 -20 -20 -33 -20 -709 l0 -690 26 -20 c27 -21 29 -21
1144 -21 1115 0 1117 0 1144 21 l26 20 0 690 c0 676 0 689 -20 709 -20 20 -33
20 -1150 20 -1117 0 -1130 0 -1150 -20z"/>
<path d="M707 5085 c-61 -23 -86 -45 -294 -266 -153 -162 -205 -224 -228 -272
l-30 -62 0 -1420 0 -1420 22 -55 c46 -111 142 -207 253 -253 l55 -22 794 -3
c535 -2 811 1 846 8 177 37 313 179 346 361 8 48 18 72 28 76 50 14 127 58
165 93 l43 40 340 0 c187 0 355 3 372 6 26 5 31 11 31 35 0 23 5 28 28 31 22
2 28 9 30 34 l3 31 -143 6 c-79 4 -245 7 -370 7 l-227 0 0 70 0 70 293 0 c161
0 327 3 369 6 76 7 77 7 77 35 0 22 -5 29 -30 34 -25 5 -30 12 -30 34 l0 28
-112 6 c-62 4 -232 7 -378 7 -256 0 -266 1 -278 20 -18 29 -128 98 -168 106
l-34 6 0 968 c0 608 -4 987 -10 1020 -20 105 -48 145 -254 365 -200 213 -250
257 -315 275 -22 6 -250 10 -596 9 -452 0 -567 -3 -598 -14z m1166 -136 c29
-15 393 -384 422 -429 13 -19 29 -62 35 -95 8 -43 10 -440 8 -1400 l-3 -1340
-23 -50 c-30 -65 -85 -122 -147 -151 l-50 -24 -796 0 c-880 0 -842 -3 -923 64
-23 19 -55 58 -71 87 l-30 54 -3 1380 c-2 1268 -1 1383 14 1430 14 39 35 68
98 130 45 45 132 135 194 202 63 67 128 128 145 137 28 13 103 16 570 16 372
0 545 -3 560 -11z m687 -2687 c55 -54 76 -111 66 -182 -8 -61 -52 -127 -103
-157 l-43 -25 0 206 c0 238 0 238 80 158z"/>
<path d="M520 4498 c-79 -41 -80 -46 -80 -410 l0 -318 70 0 70 0 2 303 3 302
728 3 727 2 0 -123 c0 -68 3 -206 7 -305 l6 -182 63 0 63 0 3 298 c2 163 0
312 -4 331 -9 46 -37 82 -79 103 -31 17 -90 18 -784 18 l-751 0 -44 -22z"/>
<path d="M779 4219 c-15 -6 -32 -22 -38 -37 -8 -20 -11 -161 -9 -481 l3 -453
24 -19 c22 -18 46 -19 551 -19 518 0 528 0 554 21 l26 20 0 468 c0 463 0 468
-21 487 -20 18 -45 19 -543 21 -323 1 -531 -2 -547 -8z m971 -279 l0 -150
-440 0 -440 0 0 150 0 150 440 0 440 0 0 -150z m0 -440 l0 -150 -440 0 -440 0
0 150 0 150 440 0 440 0 0 -150z"/>
<path d="M773 3044 c-59 -22 -132 -89 -159 -149 -34 -71 -32 -208 2 -154 3 6
15 8 27 5 11 -3 33 2 49 10 26 13 29 13 34 -3 34 -111 116 -155 208 -115 56
25 86 70 86 130 0 49 -11 75 -48 114 -22 24 -23 28 -8 34 10 4 15 13 12 21 -4
9 7 22 30 35 19 11 33 25 31 31 -2 6 -21 20 -43 31 -50 27 -162 32 -221 10z
m91 -124 c13 -13 19 -36 22 -88 4 -63 2 -72 -15 -82 -30 -16 -35 -13 -90 38
-59 55 -67 94 -28 129 40 37 75 38 111 3z"/>
<path d="M1195 3035 c-25 -24 -25 -27 -25 -193 0 -234 -37 -212 363 -212 304
0 318 1 337 20 18 18 20 33 20 194 l0 175 -26 20 c-26 20 -38 21 -336 21
l-309 0 -24 -25z m555 -190 l0 -75 -220 0 -220 0 0 75 0 75 220 0 220 0 0 -75z"/>
<path d="M1010 1895 l0 -145 85 0 85 0 0 145 0 145 -85 0 -85 0 0 -145z"/>
<path d="M1300 1895 l0 -145 85 0 85 0 0 145 0 145 -85 0 -85 0 0 -145z"/>
<path d="M1596 2024 c-3 -9 -6 -74 -6 -145 l0 -129 85 0 85 0 0 145 0 145 -79
0 c-63 0 -80 -3 -85 -16z"/>
<path d="M720 1890 l0 -140 85 0 85 0 0 103 c0 56 -3 119 -6 140 l-7 37 -78 0
-79 0 0 -140z"/>
<path d="M3871 1414 c-45 -180 -79 -335 -76 -345 15 -45 -26 -44 1480 -47 787
-1 1488 1 1559 5 123 8 130 9 148 34 l19 26 -80 307 c-46 180 -87 316 -97 327
-15 17 -32 19 -163 19 -85 0 -140 -4 -133 -9 8 -5 22 -33 31 -62 l18 -54 76
-3 c61 -2 77 -6 81 -20 3 -9 21 -76 40 -148 22 -87 41 -139 55 -153 22 -22 24
-35 15 -93 l-7 -38 -1447 0 c-1414 0 -1448 0 -1443 19 3 10 0 22 -6 25 -20 13
-11 58 17 90 21 24 35 63 61 174 l35 142 77 0 77 0 12 48 c6 26 19 55 27 65
15 16 8 17 -139 17 l-156 0 -81 -326z"/>
</g>
</svg>
